<svg x="0" y="0"  version="1.1"  xmlns="http://www.w3.org/2000/svg" xmlns:xlink="http://www.w3.org/1999/xlink" viewBox="0 0 500 500" height="1000" width="2000">
    <g fill="none" opacity="0.3" stroke="n" transform="translate(-500,-40)" stroke-width="none" stroke-linecap="round" stroke-linejoin="miter" stroke-miterlimit="10" stroke-dasharray="" stroke-dashoffset="0" font-family="sans-serif" font-weight="normal" font-size="12" text-anchor="start" mix-blend-mode="normal">
        <g>
            <path d="M668.20831,473.66667l0,-160" stroke="#f73" stroke-width="0" />
            <path d="M668.20831,313.66667l-58.12355,-80.0002" stroke="#f40" stroke-width="3" />
            <path d="M610.08477,233.66647l-58.12369,-18.88553" stroke="#f40" stroke-width="2" />
            <path d="M551.96108,214.78094l-35.9225,11.67193" stroke="#c40" stroke-width="1" />
            <path d="M516.03857,226.45287l-13.72121,18.88562" stroke="#030" stroke-width="1" />
            <path d="M516.03857,226.45287l-22.20138,7.21367" stroke="#030" stroke-width="1" />
            <path d="M516.03857,226.45287l-22.20138,-7.21367" stroke="#030" stroke-width="1" />
            <path d="M551.96108,214.78094l-35.9225,-11.67193" stroke="#c40" stroke-width="1" />
            <path d="M516.03857,203.10901l-22.20138,7.21367" stroke="#030" stroke-width="1" />
            <path d="M516.03857,203.10901l-22.20138,-7.21367" stroke="#030" stroke-width="1" />
            <path d="M516.03857,203.10901l-13.72121,-18.88562" stroke="#030" stroke-width="1" />
            <path d="M551.96108,214.78094l-22.20133,-30.55751" stroke="#c40" stroke-width="1" />
            <path d="M529.75975,184.22343l-22.20138,-7.21367" stroke="#030" stroke-width="1" />
            <path d="M529.75975,184.22343l-13.72121,-18.88562" stroke="#030" stroke-width="1" />
            <path d="M529.75975,184.22343l0,-23.34392" stroke="#030" stroke-width="1" />
            <path d="M610.08477,233.66647l-35.92242,-49.44296" stroke="#f40" stroke-width="2" />
            <path d="M574.16235,184.22351l-35.9225,-11.67193" stroke="#c40" stroke-width="1" />
            <path d="M538.23985,172.55158l-22.20138,7.21367" stroke="#030" stroke-width="1" />
            <path d="M538.23985,172.55158l-22.20138,-7.21367" stroke="#030" stroke-width="1" />
            <path d="M538.23985,172.55158l-13.72121,-18.88562" stroke="#030" stroke-width="1" />
            <path d="M574.16235,184.22351l-22.20133,-30.55751" stroke="#c40" stroke-width="1" />
            <path d="M551.96102,153.666l-22.20138,-7.21367" stroke="#030" stroke-width="1" />
            <path d="M551.96102,153.666l-13.72121,-18.88562" stroke="#030" stroke-width="1" />
            <path d="M551.96102,153.666l0,-23.34392" stroke="#030" stroke-width="1" />
            <path d="M574.16235,184.22351l0,-37.77116" stroke="#c40" stroke-width="1" />
            <path d="M574.16235,146.45235l-13.72121,-18.88562" stroke="#030" stroke-width="1" />
            <path d="M574.16235,146.45235l0,-23.34392" stroke="#030" stroke-width="1" />
            <path d="M574.16235,146.45235l13.72121,-18.88562" stroke="#030" stroke-width="1" />
            <path d="M610.08477,233.66647l0,-61.11486" stroke="#f40" stroke-width="2" />
            <path d="M610.08477,172.55161l-22.20133,-30.55751" stroke="#c40" stroke-width="1" />
            <path d="M587.88344,141.9941l-22.20138,-7.21367" stroke="#030" stroke-width="1" />
            <path d="M587.88344,141.9941l-13.72121,-18.88562" stroke="#030" stroke-width="1" />
            <path d="M587.88344,141.9941l0,-23.34392" stroke="#030" stroke-width="1" />
            <path d="M610.08477,172.55161l0,-37.77116" stroke="#c40" stroke-width="1" />
            <path d="M610.08477,134.78045l-13.72121,-18.88562" stroke="#030" stroke-width="1" />
            <path d="M610.08477,134.78045l0,-23.34392" stroke="#030" stroke-width="1" />
            <path d="M610.08477,134.78045l13.72121,-18.88562" stroke="#030" stroke-width="1" />
            <path d="M610.08477,172.55161l22.20133,-30.55751" stroke="#c40" stroke-width="1" />
            <path d="M632.2861,141.9941l0,-23.34392" stroke="#030" stroke-width="1" />
            <path d="M632.2861,141.9941l13.72121,-18.88562" stroke="#030" stroke-width="1" />
            <path d="M632.2861,141.9941l22.20138,-7.21367" stroke="#030" stroke-width="1" />
            <path d="M668.20831,313.66667l0,-98.88568" stroke="#f40" stroke-width="3" />
            <path d="M668.20831,214.78098l-35.92242,-49.44296" stroke="#f40" stroke-width="2" />
            <path d="M632.2859,165.33802l-35.9225,-11.67193" stroke="#c40" stroke-width="1" />
            <path d="M596.36339,153.66609l-22.20138,7.21367" stroke="#030" stroke-width="1" />
            <path d="M596.36339,153.66609l-22.20138,-7.21367" stroke="#030" stroke-width="1" />
            <path d="M596.36339,153.66609l-13.72121,-18.88562" stroke="#030" stroke-width="1" />
            <path d="M632.2859,165.33802l-22.20133,-30.55751" stroke="#c40" stroke-width="1" />
            <path d="M610.08457,134.78051l-22.20138,-7.21367" stroke="#030" stroke-width="1" />
            <path d="M610.08457,134.78051l-13.72121,-18.88562" stroke="#030" stroke-width="1" />
            <path d="M610.08457,134.78051l0,-23.34392" stroke="#030" stroke-width="1" />
            <path d="M632.2859,165.33802l0,-37.77116" stroke="#c40" stroke-width="1" />
            <path d="M632.2859,127.56687l-13.72121,-18.88562" stroke="#030" stroke-width="1" />
            <path d="M632.2859,127.56687l0,-23.34392" stroke="#030" stroke-width="1" />
            <path d="M632.2859,127.56687l13.72121,-18.88562" stroke="#030" stroke-width="1" />
            <path d="M668.20831,214.78098l0,-61.11486" stroke="#f40" stroke-width="2" />
            <path d="M668.20831,153.66612l-22.20133,-30.55751" stroke="#c40" stroke-width="1" />
            <path d="M646.00698,123.10861l-22.20138,-7.21367" stroke="#030" stroke-width="1" />
            <path d="M646.00698,123.10861l-13.72121,-18.88562" stroke="#030" stroke-width="1" />
            <path d="M646.00698,123.10861l0,-23.34392" stroke="#030" stroke-width="1" />
            <path d="M668.20831,153.66612l0,-37.77116" stroke="#c40" stroke-width="1" />
            <path d="M668.20831,115.89497l-13.72121,-18.88562" stroke="#030" stroke-width="1" />
            <path d="M668.20831,115.89497l0,-23.34392" stroke="#030" stroke-width="1" />
            <path d="M668.20831,115.89497l13.72121,-18.88562" stroke="#030" stroke-width="1" />
            <path d="M668.20831,153.66612l22.20133,-30.55751" stroke="#c40" stroke-width="1" />
            <path d="M690.40964,123.10861l0,-23.34392" stroke="#030" stroke-width="1" />
            <path d="M690.40964,123.10861l13.72121,-18.88562" stroke="#030" stroke-width="1" />
            <path d="M690.40964,123.10861l22.20138,-7.21367" stroke="#030" stroke-width="1" />
            <path d="M668.20831,214.78098l35.92242,-49.44296" stroke="#f40" stroke-width="2" />
            <path d="M704.13073,165.33802l0,-37.77116" stroke="#c40" stroke-width="1" />
            <path d="M704.13073,127.56687l-13.72121,-18.88562" stroke="#030" stroke-width="1" />
            <path d="M704.13073,127.56687l0,-23.34392" stroke="#030" stroke-width="1" />
            <path d="M704.13073,127.56687l13.72121,-18.88562" stroke="#030" stroke-width="1" />
            <path d="M704.13073,165.33802l22.20133,-30.55751" stroke="#c40" stroke-width="1" />
            <path d="M726.33206,134.78051l0,-23.34392" stroke="#030" stroke-width="1" />
            <path d="M726.33206,134.78051l13.72121,-18.88562" stroke="#030" stroke-width="1" />
            <path d="M726.33206,134.78051l22.20138,-7.21367" stroke="#030" stroke-width="1" />
            <path d="M704.13073,165.33802l35.9225,-11.67193" stroke="#c40" stroke-width="1" />
            <path d="M740.05323,153.66609l13.72121,-18.88562" stroke="#030" stroke-width="1" />
            <path d="M740.05323,153.66609l22.20138,-7.21367" stroke="#030" stroke-width="1" />
            <path d="M740.05323,153.66609l22.20138,7.21367" stroke="#030" stroke-width="1" />
            <path d="M668.20831,313.66667l58.12355,-80.0002" stroke="#f40" stroke-width="3" />
            <path d="M726.33186,233.66647l0,-61.11486" stroke="#f40" stroke-width="2" />
            <path d="M726.33186,172.55161l-22.20133,-30.55751" stroke="#c40" stroke-width="1" />
            <path d="M704.13053,141.9941l-22.20138,-7.21367" stroke="#030" stroke-width="1" />
            <path d="M704.13053,141.9941l-13.72121,-18.88562" stroke="#030" stroke-width="1" />
            <path d="M704.13053,141.9941l0,-23.34392" stroke="#030" stroke-width="1" />
            <path d="M726.33186,172.55161l0,-37.77116" stroke="#c40" stroke-width="1" />
            <path d="M726.33186,134.78045l-13.72121,-18.88562" stroke="#030" stroke-width="1" />
            <path d="M726.33186,134.78045l0,-23.34392" stroke="#030" stroke-width="1" />
            <path d="M726.33186,134.78045l13.72121,-18.88562" stroke="#030" stroke-width="1" />
            <path d="M726.33186,172.55161l22.20133,-30.55751" stroke="#c40" stroke-width="1" />
            <path d="M748.53319,141.9941l0,-23.34392" stroke="#030" stroke-width="1" />
            <path d="M748.53319,141.9941l13.72121,-18.88562" stroke="#030" stroke-width="1" />
            <path d="M748.53319,141.9941l22.20138,-7.21367" stroke="#030" stroke-width="1" />
            <path d="M726.33186,233.66647l35.92242,-49.44296" stroke="#f40" stroke-width="2" />
            <path d="M762.25427,184.22351l0,-37.77116" stroke="#c40" stroke-width="1" />
            <path d="M762.25427,146.45235l-13.72121,-18.88562" stroke="#030" stroke-width="1" />
            <path d="M762.25427,146.45235l0,-23.34392" stroke="#030" stroke-width="1" />
            <path d="M762.25427,146.45235l13.72121,-18.88562" stroke="#030" stroke-width="1" />
            <path d="M762.25427,184.22351l22.20133,-30.55751" stroke="#c40" stroke-width="1" />
            <path d="M784.4556,153.666l0,-23.34392" stroke="#030" stroke-width="1" />
            <path d="M784.4556,153.666l13.72121,-18.88562" stroke="#030" stroke-width="1" />
            <path d="M784.4556,153.666l22.20138,-7.21367" stroke="#030" stroke-width="1" />
            <path d="M762.25427,184.22351l35.9225,-11.67193" stroke="#c40" stroke-width="1" />
            <path d="M798.17678,172.55158l13.72121,-18.88562" stroke="#030" stroke-width="1" />
            <path d="M798.17678,172.55158l22.20138,-7.21367" stroke="#030" stroke-width="1" />
            <path d="M798.17678,172.55158l22.20138,7.21367" stroke="#030" stroke-width="1" />
            <path d="M726.33186,233.66647l58.12369,-18.88553" stroke="#f40" stroke-width="2" />
            <path d="M784.45555,214.78094l22.20133,-30.55751" stroke="#c40" stroke-width="1" />
            <path d="M806.65688,184.22343l0,-23.34392" stroke="#030" stroke-width="1" />
            <path d="M806.65688,184.22343l13.72121,-18.88562" stroke="#030" stroke-width="1" />
            <path d="M806.65688,184.22343l22.20138,-7.21367" stroke="#030" stroke-width="1" />
            <path d="M784.45555,214.78094l35.9225,-11.67193" stroke="#c40" stroke-width="1" />
            <path d="M820.37805,203.10901l13.72121,-18.88562" stroke="#030" stroke-width="1" />
            <path d="M820.37805,203.10901l22.20138,-7.21367" stroke="#030" stroke-width="1" />
            <path d="M820.37805,203.10901l22.20138,7.21367" stroke="#030" stroke-width="1" />
            <path d="M784.45555,214.78094l35.9225,11.67193" stroke="#c40" stroke-width="1" />
            <path d="M820.37805,226.45287l22.20138,-7.21367" stroke="#030" stroke-width="1" />
            <path d="M820.37805,226.45287l22.20138,7.21367" stroke="#030" stroke-width="1" />
            <path d="M820.37805,226.45287l13.72121,18.88562" stroke="#030" stroke-width="1" />
        </g>
    </g>
</svg>